<?xml version="1.0" standalone="no"?>
<!DOCTYPE svg PUBLIC "-//W3C//DTD SVG 20010904//EN"
 "http://www.w3.org/TR/2001/REC-SVG-20010904/DTD/svg10.dtd">
<svg version="1.0" xmlns="http://www.w3.org/2000/svg"
 width="538.000000pt" height="538.000000pt" viewBox="0 0 538.000000 538.000000"
 preserveAspectRatio="xMidYMid meet">
<metadata>
Created by potrace 1.14, written by Peter Selinger 2001-2017
</metadata>
<g transform="translate(0.000000,538.000000) scale(0.100000,-0.100000)"
fill="#000000" stroke="none">
<path d="M732 4960 c-24 -17 -52 -51 -67 -80 -26 -51 -130 -353 -139 -403 -3
-15 -11 -51 -20 -80 -12 -43 -34 -146 -61 -287 -3 -14 -7 -45 -10 -70 -3 -25
-7 -61 -10 -80 -31 -197 -36 -615 -11 -815 2 -16 7 -59 11 -95 3 -36 15 -109
26 -164 l19 -98 -67 -82 c-37 -44 -69 -83 -72 -86 -17 -15 -130 -159 -140
-179 -10 -17 -11 -62 -6 -175 3 -83 8 -167 10 -187 53 -509 211 -923 482
-1262 282 -355 707 -632 1211 -791 l83 -26 772 0 773 0 114 39 c785 264 1288
737 1526 1434 29 85 44 135 80 282 5 17 9 190 11 385 l3 355 -56 70 c-30 39
-65 81 -77 95 -90 103 -106 128 -102 151 14 68 34 191 40 244 4 33 9 68 11 79
6 30 17 284 17 376 0 90 -13 352 -18 360 -1 3 -6 37 -9 75 -3 39 -8 81 -11 95
-3 14 -7 36 -9 50 -3 14 -8 43 -11 65 -7 48 -53 258 -66 300 -5 17 -20 71 -35
120 -39 137 -104 306 -130 342 -13 17 -40 41 -59 53 -32 20 -46 22 -120 18
-46 -2 -89 -9 -97 -15 -7 -6 -24 -14 -38 -18 -73 -22 -347 -166 -478 -252 -78
-50 -238 -170 -287 -213 -108 -96 -252 -244 -319 -331 l-76 -97 -53 14 c-49
13 -116 26 -197 39 -19 3 -46 7 -60 10 -125 22 -384 22 -539 -1 -91 -13 -216
-36 -223 -40 -4 -3 -27 -7 -51 -10 l-43 -6 -59 79 c-79 105 -288 313 -408 407
-171 132 -344 239 -537 334 -164 79 -232 102 -310 102 -59 0 -72 -4 -108 -30z"/>
</g>
</svg>
